<svg width="81" height="80" viewBox="0 0 81 80" fill="none" xmlns="http://www.w3.org/2000/svg">
<path d="M16.334 14H64.334V18C64.334 44.5097 42.8437 66 16.334 66V66V14Z" fill="#FFE6D5"/>
<circle cx="22.334" cy="20" r="2" fill="#E62E05"/>
<circle cx="29.334" cy="20" r="2" fill="#E62E05"/>
<circle cx="36.334" cy="20" r="2" fill="#E62E05"/>
<path d="M60.7784 51.7779C60.7784 54.5908 59.9443 57.3405 58.3816 59.6793C56.8188 62.0182 54.5976 63.8411 51.9988 64.9175C49.4 65.994 46.5404 66.2756 43.7816 65.7268C41.0227 65.1781 38.4886 63.8235 36.4996 61.8345C34.5106 59.8455 33.156 57.3113 32.6073 54.5525C32.0585 51.7937 32.3401 48.934 33.4166 46.3353C34.493 43.7365 36.3159 41.5153 38.6548 39.9525C40.9936 38.3898 43.7433 37.5557 46.5562 37.5557L46.5562 51.7779H60.7784Z" fill="#E62E05"/>
<path d="M50.1113 34V34C57.966 34 64.3335 40.3675 64.3335 48.2222V48.2222H50.1113V34Z" fill="#FF9C66"/>
</svg>
