<svg width="81" height="80" viewBox="0 0 81 80" fill="none" xmlns="http://www.w3.org/2000/svg">
<path d="M17.002 14H65.002V18C65.002 44.5097 43.5116 66 17.002 66V66V14Z" fill="#FFE6D5"/>
<circle cx="23.002" cy="20" r="2" fill="#E62E05"/>
<circle cx="30.002" cy="20" r="2" fill="#E62E05"/>
<circle cx="37.002" cy="20" r="2" fill="#E62E05"/>
<path d="M35.002 45.8125H65.002V60.6875H35.002V45.8125Z" fill="#E62E05"/>
<path d="M50.002 40.5L65.002 45.8125L50.002 51.125L35.002 45.8125L50.002 40.5Z" fill="#FFE6D5"/>
<path d="M50.002 55.375L65.002 60.6875L50.002 66L35.002 60.6875L50.002 55.375Z" fill="#E62E05"/>
<rect x="35.002" y="38.3125" width="30" height="2.125" fill="#FF692E"/>
<path d="M50.002 35.125L65.002 40.4375L50.002 45.75L35.002 40.4375L50.002 35.125Z" fill="#FF692E"/>
<path d="M50.002 33L65.002 38.3125L50.002 43.625L35.002 38.3125L50.002 33Z" fill="#FF9C66"/>
</svg>
