<svg width="96" height="24" viewBox="0 0 96 24" fill="none" xmlns="http://www.w3.org/2000/svg">
<path d="M0 1.5C0 0.671573 0.671573 0 1.5 0H22.5C23.3284 0 24 0.671573 24 1.5V12C24 18.6274 18.6274 24 12 24V24C5.37258 24 0 18.6274 0 12V1.5Z" fill="#E62E05"/>
<path d="M12 2L14.7009 9.29909L22 12L14.7009 14.7009L12 22L9.29909 14.7009L2 12L9.29909 9.29909L12 2Z" fill="white"/>
<path d="M35.15 5.4H33.08V12.6C33.08 14.4 33.494 15.768 34.34 16.704C35.168 17.64 36.41 18.108 38.03 18.108C39.65 18.108 40.892 17.64 41.738 16.704C42.584 15.768 43.016 14.4 43.016 12.6V5.4H40.946V12.708C40.946 13.896 40.694 14.796 40.226 15.39C39.758 15.984 39.02 16.272 38.03 16.272C37.04 16.272 36.32 15.984 35.852 15.39C35.384 14.796 35.15 13.896 35.15 12.708V5.4ZM46.5958 14.958H44.7238C44.7418 15.948 45.1378 16.722 45.8938 17.28C46.6498 17.838 47.6578 18.108 48.8998 18.108C49.6198 18.108 50.2858 18 50.8798 17.766C51.4558 17.532 51.9238 17.19 52.2658 16.758C52.5898 16.326 52.7698 15.804 52.7698 15.228C52.7698 14.58 52.6078 14.076 52.2838 13.698C51.9598 13.32 51.5278 13.05 50.9878 12.87C50.4478 12.69 49.7818 12.564 48.9898 12.474C48.3958 12.402 47.9638 12.348 47.7118 12.294C47.4418 12.24 47.2258 12.15 47.0458 12.006C46.8658 11.862 46.7938 11.664 46.7938 11.376C46.7938 11.016 46.9558 10.71 47.3158 10.494C47.6578 10.278 48.1078 10.17 48.6838 10.17C49.2418 10.17 49.7098 10.314 50.0878 10.584C50.4478 10.854 50.6638 11.196 50.7178 11.61H52.6078C52.5358 10.674 52.1398 9.954 51.4198 9.432C50.6998 8.928 49.7458 8.658 48.5938 8.658C47.8738 8.658 47.2438 8.784 46.6858 9.018C46.1278 9.27 45.6958 9.612 45.3718 10.044C45.0478 10.476 44.9038 10.98 44.9038 11.538C44.9038 12.15 45.0478 12.618 45.3718 12.978C45.6958 13.338 46.1098 13.59 46.6318 13.752C47.1538 13.914 47.8198 14.04 48.6298 14.13C49.2058 14.202 49.6378 14.274 49.9258 14.346C50.2138 14.418 50.4298 14.526 50.6098 14.67C50.7718 14.832 50.8618 15.066 50.8618 15.372C50.8618 15.75 50.6638 16.056 50.3038 16.272C49.9438 16.488 49.4578 16.596 48.8818 16.596C48.2158 16.596 47.6758 16.452 47.2618 16.146C46.8478 15.84 46.6318 15.444 46.5958 14.958ZM63.1666 16.308H62.7886C62.3746 16.308 62.1766 16.092 62.1766 15.66V12.024C62.1766 10.944 61.8346 10.116 61.1686 9.54C60.4846 8.964 59.5306 8.676 58.3066 8.676C57.1366 8.676 56.2006 8.946 55.4806 9.45C54.7606 9.954 54.3466 10.674 54.2566 11.592H56.1646C56.2366 11.196 56.4526 10.872 56.8126 10.62C57.1726 10.368 57.6406 10.242 58.2166 10.242C58.8466 10.242 59.3506 10.404 59.7106 10.692C60.0706 10.98 60.2506 11.394 60.2506 11.898V12.456H57.9286C56.6326 12.456 55.6606 12.726 54.9946 13.23C54.3106 13.734 53.9866 14.472 53.9866 15.408C53.9866 16.254 54.2926 16.92 54.9226 17.388C55.5346 17.874 56.3626 18.108 57.4066 18.108C58.7386 18.108 59.7466 17.586 60.4486 16.524C60.4486 17.01 60.5746 17.37 60.8446 17.622C61.0966 17.874 61.5286 18 62.1406 18H63.1666V16.308ZM60.2506 13.896V14.22C60.2326 14.94 59.9986 15.516 59.5486 15.948C59.0986 16.38 58.4686 16.596 57.6766 16.596C57.1366 16.596 56.7226 16.488 56.4166 16.236C56.1106 16.002 55.9666 15.678 55.9666 15.282C55.9666 14.832 56.1286 14.49 56.4526 14.256C56.7766 14.022 57.2266 13.896 57.8386 13.896H60.2506ZM71.4075 9.252C70.7415 8.874 69.9855 8.676 69.1575 8.676C67.8975 8.676 66.8895 9.18 66.1695 10.152V5.4H64.2255V18H65.9175L66.1515 16.668C66.4575 17.118 66.8715 17.478 67.3755 17.73C67.8795 17.982 68.4735 18.108 69.1575 18.108C69.9855 18.108 70.7415 17.91 71.4075 17.514C72.0555 17.118 72.5775 16.578 72.9555 15.858C73.3155 15.138 73.5135 14.328 73.5135 13.392C73.5135 12.42 73.3155 11.592 72.9555 10.872C72.5775 10.17 72.0555 9.63 71.4075 9.252ZM70.7775 15.624C70.2735 16.2 69.6255 16.47 68.8335 16.47C68.0235 16.47 67.3755 16.182 66.8895 15.606C66.3855 15.03 66.1515 14.292 66.1515 13.374C66.1515 12.474 66.3855 11.754 66.8895 11.178C67.3755 10.62 68.0235 10.332 68.8335 10.332C69.6255 10.332 70.2735 10.62 70.7775 11.196C71.2815 11.772 71.5335 12.492 71.5335 13.392C71.5335 14.31 71.2815 15.048 70.7775 15.624ZM76.8892 5.436C76.6552 5.22 76.3672 5.094 76.0432 5.094C75.7012 5.094 75.4132 5.22 75.1972 5.436C74.9632 5.652 74.8552 5.94 74.8552 6.264C74.8552 6.606 74.9632 6.894 75.1972 7.11C75.4132 7.326 75.7012 7.434 76.0432 7.434C76.3672 7.434 76.6552 7.326 76.8892 7.11C77.1052 6.894 77.2312 6.606 77.2312 6.264C77.2312 5.94 77.1052 5.652 76.8892 5.436ZM75.0712 8.784V18H77.0152V8.784H75.0712ZM78.9208 5.4V18H80.8648V5.4H78.9208ZM84.5884 5.436C84.3544 5.22 84.0664 5.094 83.7424 5.094C83.4004 5.094 83.1124 5.22 82.8964 5.436C82.6624 5.652 82.5544 5.94 82.5544 6.264C82.5544 6.606 82.6624 6.894 82.8964 7.11C83.1124 7.326 83.4004 7.434 83.7424 7.434C84.0664 7.434 84.3544 7.326 84.5884 7.11C84.8044 6.894 84.9304 6.606 84.9304 6.264C84.9304 5.94 84.8044 5.652 84.5884 5.436ZM82.7704 8.784V18H84.7144V8.784H82.7704ZM89.23 13.284L85.774 18H87.88L90.328 14.652L92.758 18H95.026L91.552 13.284L94.828 8.784H92.704L90.454 11.898L88.24 8.784H85.972L89.23 13.284Z" fill="#344054"/>
</svg>
