<svg width="80" height="80" viewBox="0 0 80 80" fill="none" xmlns="http://www.w3.org/2000/svg">
<path d="M16 14H64V18C64 44.5097 42.5097 66 16 66V66V14Z" fill="#FFE6D5"/>
<circle cx="22" cy="20" r="2" fill="#E62E05"/>
<circle cx="29" cy="20" r="2" fill="#E62E05"/>
<circle cx="36" cy="20" r="2" fill="#E62E05"/>
<circle cx="50" cy="52" r="14" fill="#E62E05"/>
<path d="M47.4535 57.7275L47.5242 57.7982L47.5949 57.7275L47.5959 57.7265L47.5959 57.7265L49.009 56.3135L49.009 56.3135L57.494 47.8275L57.5647 47.7568L57.494 47.6861L56.08 46.2721L56.0093 46.2014L55.9386 46.2721L47.5257 54.6849L44.0589 51.222L43.9882 51.1514L43.9175 51.2221L42.5035 52.6361L42.4328 52.7068L42.5035 52.7775L47.4535 57.7275Z" fill="white" stroke="white" stroke-width="0.2"/>
</svg>
